<?xml version="1.0" encoding="utf-8"?>
<!-- Generator: Adobe Illustrator 23.0.2, SVG Export Plug-In . SVG Version: 6.00 Build 0)  -->
<svg version="1.1" id="Layer_1" xmlns="http://www.w3.org/2000/svg" xmlns:xlink="http://www.w3.org/1999/xlink" x="0px" y="0px"
	 viewBox="0 0 1000 290.6" style="enable-background:new 0 0 1000 290.6;" xml:space="preserve">
<style type="text/css">
	.st0{fill:#FFFFFF;}
	.st1{fill:#F0B90B;}
	.st2{fill:none;}
</style>
<title>labs fellowship light</title>
<g>
	<g id="content">
		<path class="st0" d="M228,167.6h-47.8v22.9h42.4V204h-42.4v34.2h-14.8v-84H228V167.6z"/>
		<path class="st0" d="M302.8,167.4h-47.5v21.8h42.1v13.2h-42.1V225h48.1v13.2h-62.9v-84h62.3V167.4z"/>
		<path class="st0" d="M319.6,154.2h14.8v70.6h44.2v13.4h-58.9V154.2z"/>
		<path class="st0" d="M390.6,154.2h14.8v70.6h44.2v13.4h-58.9V154.2z"/>
		<path class="st0" d="M499,239.6c-25.8,0-43.8-19.6-43.8-43.3s18.2-43.6,44-43.6s43.8,19.6,43.8,43.3S524.8,239.6,499,239.6z
			 M499,166.3c-16.7,0-28.3,13.3-28.3,29.8s11.9,30,28.6,30s28.3-13.3,28.3-29.8S515.7,166.3,499,166.3z"/>
		<path class="st0" d="M604.5,154H617l20.6,62.5l20-62.3h15.5l-29.3,84.6h-12.7l-20.6-60.4l-20.6,60.4h-12.7l-29.3-84.6h16l20,62.3
			L604.5,154z"/>
		<path class="st0" d="M715.8,189.5c17.8,4.3,27,10.7,27,24.7c0,15.8-12.4,25.2-30,25.2c-12.9,0.1-25.4-4.7-35-13.4l8.9-10.6
			c8,7,16.1,10.9,26.5,10.9c9.1,0,14.9-4.2,14.9-10.7c0-6.1-3.4-9.4-19-13c-17.9-4.3-28-9.6-28-25.2c0-14.6,12-24.5,28.7-24.5
			c11.1-0.2,21.9,3.5,30.5,10.6l-7.9,11.2c-7.6-5.6-15.1-8.6-22.8-8.6c-8.6,0-13.7,4.4-13.7,10.1
			C695.9,182.8,699.7,185.6,715.8,189.5z"/>
		<path class="st0" d="M773.2,202.8v35.4h-14.8v-84h14.8v34.9h40.1v-34.9h14.8v84h-14.8v-35.4L773.2,202.8z"/>
		<path class="st0" d="M863.6,154.2v84h-14.8v-84H863.6z"/>
		<path class="st0" d="M915.6,211.2H899v27h-14.8v-84h33.1c19.6,0,31.9,11,31.9,28.2C949.2,201.4,934.1,211.2,915.6,211.2z
			 M916.1,167.6H899v30.2h17.2c11.2,0,18.1-6.1,18.1-15.1C934.2,172.8,927.2,167.6,916.1,167.6z"/>
		<path class="st1" d="M63,102.7l-11.6,11.6l-11.6-11.6l11.6-11.6L63,102.7z M91.1,74.6l19.8,19.8l11.6-11.6l-19.8-19.8L91.1,51.5
			L79.6,63.1L59.8,82.9l11.6,11.6L91.1,74.6z M130.7,91.1l-11.6,11.6l11.6,11.6l11.6-11.6L130.7,91.1z M91.1,130.8l-19.8-19.8
			l-11.6,11.6l19.8,19.8l11.6,11.6l11.6-11.6l19.8-19.8l-11.6-11.6L91.1,130.8z M91.1,114.2l11.6-11.6L91.1,91.1l-11.6,11.6
			L91.1,114.2z M213.1,115.4v-0.2c0-7.5-4-11.3-10.5-13.8c4-2.2,7.4-5.8,7.4-12.1v-0.2c0-8.8-7.1-14.5-18.5-14.5h-26.1v56.1h26.7
			C204.8,130.8,213.1,125.6,213.1,115.4L213.1,115.4z M197.7,91.4c0,4.2-3.4,5.9-8.9,5.9h-11.4V85.4h12.2c5.2,0,8.1,2.1,8.1,5.8
			L197.7,91.4z M200.9,113.8c0,4.2-3.3,6.1-8.7,6.1h-14.7v-12.3h14.3c6.3,0,9.1,2.3,9.1,6.1L200.9,113.8z M239,130.8V74.6h-12.3
			v56.1L239,130.8z M305.4,130.8V74.6h-12.2v34.6l-26.3-34.6h-11.4v56.1h12.2V95.1l27.2,35.7H305.4z M373.8,130.8l-24-56.5h-11.4
			l-24.1,56.5h12.6l5.1-12.6h23.7l5.1,12.6H373.8z M351.3,107.3h-14.9l7.5-18.2L351.3,107.3z M432.7,130.8V74.6h-12.2v34.6
			l-26.3-34.6h-11.4v56.1H395V95.1l27.2,35.7H432.7z M496.4,121.7l-7.9-7.9c-4.4,4-8.3,6.6-14.8,6.6c-9.6,0-16.3-8-16.3-17.6v-0.2
			c0-9.6,6.8-17.5,16.3-17.5c5.6,0,10,2.4,14.4,6.3l7.9-9.1c-5.2-5.1-11.5-8.7-22.1-8.7c-17.2,0-29.3,13.1-29.3,29v0.2
			c0,16.1,12.3,28.9,28.8,28.9C484.3,131.7,490.7,127.9,496.4,121.7L496.4,121.7z M549.1,130.8v-11h-30.4V108h26.5V97h-26.5V85.6
			h30.1v-11h-42.3v56.1L549.1,130.8z"/>
		<path class="st1" d="M581.6,74.8h9.8v47.1h29.4v9h-39.3V74.8z"/>
		<path class="st1" d="M685.2,130.8h-10.4l-5.7-13.5h-26.5l-5.8,13.5h-10.1l24.6-56.4h9.1L685.2,130.8z M655.9,86.1l-9.6,22.4h19.3
			L655.9,86.1z"/>
		<path class="st1" d="M736.6,89.1c0,6.9-3.8,10.4-8,12.6c6.6,2.2,11.1,6,11.1,13.7c0,10.1-8.2,15.4-20.7,15.4h-26v-56h25.1
			C729.4,74.8,736.6,80.3,736.6,89.1z M726.7,90.7c0-4.6-3.5-7.2-9.8-7.2h-14.2v14.9h13.4C722.5,98.4,726.7,95.9,726.7,90.7z
			 M729.8,114.3c0-4.8-3.8-7.6-11.5-7.6h-15.6V122H719C725.8,122,729.8,119.4,729.8,114.3L729.8,114.3z"/>
		<path class="st1" d="M771.2,98.3c11.8,2.9,18,7.1,18,16.5c0,10.6-8.2,16.8-20,16.8c-8.6,0-17-3.2-23.4-9l5.9-7
			c5.4,4.6,10.7,7.3,17.7,7.3c6.1,0,9.9-2.8,9.9-7.1c0-4.1-2.2-6.2-12.6-8.6c-11.9-2.9-18.6-6.4-18.6-16.8c0-9.8,8-16.3,19.1-16.3
			c7.4-0.2,14.6,2.3,20.3,7l-5.3,7.4c-5-3.8-10.1-5.8-15.2-5.8c-5.8,0-9.1,3-9.1,6.7C757.9,93.8,760.5,95.7,771.2,98.3z"/>
	</g>
	<rect class="st2" width="1000" height="290.6"/>
</g>
</svg>
